<svg width="21" height="14" viewBox="0 0 21 14" fill="none" xmlns="http://www.w3.org/2000/svg">
<path d="M6.07075 0C6.685 0 7.24325 0.0525002 7.75075 0.1645C8.25562 0.27825 8.687 0.45325 9.05013 0.69825C9.40888 0.94325 9.6915 1.267 9.89013 1.67825C10.087 2.0895 10.1876 2.597 10.1876 3.192C10.1876 3.8395 10.0389 4.382 9.744 4.8195C9.44825 5.257 9.01162 5.607 8.42975 5.887C9.2225 6.1145 9.80875 6.517 10.199 7.08575C10.591 7.66325 10.7809 8.3545 10.7809 9.15075C10.7809 9.807 10.6671 10.367 10.4221 10.8395C10.1771 11.3208 9.83588 11.7145 9.40713 12.0207C8.98713 12.3252 8.48838 12.5457 7.94588 12.6919C7.41213 12.8362 6.85037 12.9141 6.27463 12.9141H0V0.00612539H6.07075V0ZM14.8225 10.6418C15.2075 11.0163 15.7614 11.2044 16.4797 11.2044C16.996 11.2044 17.4423 11.0749 17.8185 10.8132C18.1895 10.5595 18.4135 10.2795 18.501 9.99075H20.7655C20.4129 11.1107 19.8485 11.9157 19.103 12.397C18.3593 12.887 17.4545 13.1232 16.408 13.1232C15.6756 13.1232 15.022 13.0095 14.42 12.7732C13.8311 12.537 13.335 12.2045 12.915 11.7758C12.509 11.347 12.1949 10.8307 11.9726 10.227C11.7512 9.62325 11.6463 8.95825 11.6463 8.24075C11.6463 7.53812 11.7644 6.89325 11.9989 6.2895C12.2351 5.677 12.5624 5.1695 12.9789 4.72325C13.412 4.277 13.909 3.94012 14.4979 3.6785C15.0868 3.41688 15.7229 3.29963 16.4404 3.29963C17.2366 3.29963 17.9191 3.44313 18.5229 3.75725C19.1091 4.05475 19.5904 4.47475 19.9754 4.98225C20.3604 5.495 20.6316 6.08475 20.7979 6.74975C20.9641 7.406 21.0166 8.09725 20.9816 8.83225H14.2529C14.2529 9.56725 14.4979 10.2603 14.8741 10.6391L14.8041 10.6654L14.8225 10.6418ZM5.8625 10.6855C6.13987 10.6855 6.405 10.6592 6.65525 10.6041C6.909 10.5516 7.13475 10.4598 7.32288 10.3416C7.50663 10.2235 7.66412 10.0546 7.77787 9.8315C7.89162 9.6215 7.94413 9.33275 7.94413 8.9915C7.94413 8.33525 7.75163 7.86275 7.38413 7.574C7.00788 7.294 6.51788 7.154 5.90538 7.154H2.835V10.6977H5.8625V10.6715V10.6855ZM17.7686 5.74175C17.4606 5.40487 16.9461 5.22375 16.3187 5.22375C15.9092 5.22375 15.5706 5.2885 15.2985 5.432C15.0342 5.56325 14.8172 5.73825 14.651 5.94825C14.4847 6.15825 14.3736 6.36825 14.308 6.6045C14.2424 6.832 14.203 7.042 14.1899 7.22575H18.3566C18.2954 6.5695 18.0679 6.08825 17.7616 5.747V5.75575L17.7686 5.74175ZM5.705 5.20363C6.20725 5.20363 6.62375 5.08638 6.95188 4.84313C7.27913 4.60688 7.43662 4.21312 7.43662 3.67238C7.43662 3.37138 7.37538 3.1255 7.27913 2.93213C7.16538 2.73963 7.01662 2.59088 6.84162 2.48413C6.65787 2.37563 6.44787 2.30038 6.21162 2.25925C5.97537 2.21288 5.72162 2.1945 5.47662 2.1945H2.82625V5.2045H5.705V5.20363ZM13.6658 0.865375H18.8878V2.13763H13.6658V0.854875V0.863625V0.865375Z" fill="black"/>
</svg>
