<svg width="20" height="13" viewBox="0 0 20 13" fill="none" xmlns="http://www.w3.org/2000/svg">
<rect x="0.799988" width="18.4" height="12.8" fill="#C4C4C4"/>
<path d="M19.6016 0H0.398398C0.178398 0 0 0.178359 0 0.398398V10.8956C0 12.0192 0.914061 12.9333 2.03769 12.9333H17.9623C19.0859 12.9333 20 12.0192 20 10.8956V0.398398C20 0.178359 19.8216 0 19.6016 0ZM19.2032 10.8956C19.2032 11.5798 18.6465 12.1364 17.9623 12.1364H2.03769C1.35347 12.1364 0.796834 11.5797 0.796834 10.8956V1.26761L9.7476 8.5951C9.82104 8.65518 9.91049 8.68522 9.99998 8.68522C10.0893 8.68522 10.1787 8.65526 10.252 8.59537L17.178 2.938C17.3484 2.79878 17.3737 2.54785 17.2345 2.37742C17.0953 2.20699 16.8444 2.18168 16.674 2.32093L10.0003 7.77217L1.47965 0.796795H19.2032V10.8956V10.8956Z" fill="#909090"/>
<path d="M0.398436 0H19.6016C19.8216 0 20 0.178359 20 0.398398V10.8956C20 12.0192 19.0859 12.9333 17.9623 12.9333H2.03769C0.914099 12.9333 0 12.0192 0 10.8956V0.398398C3.90625e-05 0.178359 0.178436 0 0.398436 0ZM0.796834 10.8956C0.796834 11.5798 1.35347 12.1364 2.03769 12.1364H17.9623C18.6465 12.1364 19.2032 11.5797 19.2032 10.8956V1.26761L10.2524 8.5951C10.179 8.65518 10.0895 8.68522 10 8.68522C9.91068 8.68522 9.82135 8.65526 9.74799 8.59537L2.82199 2.938C2.6516 2.79878 2.62628 2.54785 2.76546 2.37742C2.90472 2.20699 3.15562 2.18168 3.32605 2.32093L9.99975 7.77217L18.5204 0.796795H0.796834V10.8956V10.8956Z" fill="#909090"/>
</svg>
