<svg width="25" height="17" viewBox="0 0 25 17" fill="none" xmlns="http://www.w3.org/2000/svg">
<rect x="1" width="23" height="16" fill="white"/>
<path d="M24.502 0H0.497997C0.222998 0 0 0.222949 0 0.497997V13.6195C0 15.0239 1.14258 16.1666 2.54711 16.1666H22.4529C23.8574 16.1666 25 15.0239 25 13.6195V0.497997C25 0.222949 24.777 0 24.502 0ZM24.004 13.6195C24.004 14.4747 23.3082 15.1705 22.4529 15.1705H2.54711C1.69184 15.1705 0.996043 14.4747 0.996043 13.6195V1.58452L12.1845 10.7439C12.2763 10.819 12.3881 10.8565 12.5 10.8565C12.6116 10.8565 12.7233 10.8191 12.815 10.7442L21.4725 3.6725C21.6855 3.49848 21.7171 3.18481 21.5432 2.97177C21.3691 2.75874 21.0555 2.72709 20.8424 2.90117L12.5003 9.71522L1.84956 0.995994H24.004V13.6195V13.6195Z" fill="black"/>
<path d="M0.498045 0H24.502C24.777 0 25 0.222949 25 0.497997V13.6195C25 15.0239 23.8574 16.1666 22.4529 16.1666H2.54711C1.14262 16.1666 0 15.0239 0 13.6195V0.497997C4.88281e-05 0.222949 0.223046 0 0.498045 0ZM0.996042 13.6195C0.996042 14.4747 1.69184 15.1705 2.54711 15.1705H22.4529C23.3082 15.1705 24.004 14.4747 24.004 13.6195V1.58452L12.8155 10.7439C12.7237 10.819 12.6119 10.8565 12.5 10.8565C12.3884 10.8565 12.2767 10.8191 12.185 10.7442L3.52748 3.6725C3.31449 3.49848 3.28285 3.18481 3.45683 2.97177C3.6309 2.75874 3.94452 2.72709 4.15756 2.90117L12.4997 9.71522L23.1504 0.995994H0.996042V13.6195V13.6195Z" fill="black"/>
</svg>
