<svg width="10" height="17" viewBox="0 0 10 17" fill="none" xmlns="http://www.w3.org/2000/svg">
<path d="M0.744058 8.5868H2.71715V16.7097C2.71715 16.8701 2.8471 17 3.00747 17H6.35292C6.51329 17 6.64324 16.8701 6.64324 16.7097V8.62506H8.91147C9.05895 8.62506 9.18304 8.51439 9.19988 8.3679L9.54437 5.37746C9.55384 5.29518 9.52777 5.21279 9.47272 5.15106C9.41762 5.08928 9.33877 5.05392 9.25603 5.05392H6.64335V3.17937C6.64335 2.61428 6.94761 2.32774 7.54777 2.32774C7.6333 2.32774 9.25603 2.32774 9.25603 2.32774C9.4164 2.32774 9.54635 2.19773 9.54635 2.03741V-0.707529C9.54635 -0.867903 9.4164 -0.997852 9.25603 -0.997852H6.9018C6.88519 -0.998665 6.84832 -1 6.79397 -1C6.38549 -1 4.96564 -0.919813 3.84406 0.111994C2.60137 1.2554 2.77411 2.62445 2.81539 2.86181V5.05386H0.744058C0.583684 5.05386 0.453735 5.18381 0.453735 5.34419V8.29642C0.453735 8.45679 0.583684 8.5868 0.744058 8.5868Z" fill="white"/>
</svg>
