<svg width="20" height="19" viewBox="0 0 20 19" fill="none" xmlns="http://www.w3.org/2000/svg">
<path fill-rule="evenodd" clip-rule="evenodd" d="M9.99998 0.833332C4.9354 0.833332 0.833313 4.93542 0.833313 10C0.833313 14.0562 3.45727 17.4823 7.10102 18.6969C7.55935 18.7771 7.73123 18.5021 7.73123 18.2615C7.73123 18.0437 7.71977 17.3219 7.71977 16.5542C5.41665 16.9781 4.82081 15.9927 4.63748 15.4771C4.53435 15.2135 4.08748 14.4 3.6979 14.1823C3.37706 14.0104 2.91873 13.5865 3.68644 13.575C4.40831 13.5635 4.92394 14.2396 5.09581 14.5146C5.92081 15.901 7.23852 15.5115 7.7656 15.2708C7.84581 14.675 8.08644 14.274 8.34998 14.0448C6.3104 13.8156 4.17915 13.025 4.17915 9.51875C4.17915 8.52187 4.53435 7.69687 5.11873 7.05521C5.02706 6.82604 4.70623 5.88646 5.2104 4.62604C5.2104 4.62604 5.9781 4.38542 7.73123 5.56562C8.46456 5.35937 9.24373 5.25625 10.0229 5.25625C10.8021 5.25625 11.5812 5.35937 12.3146 5.56562C14.0677 4.37396 14.8354 4.62604 14.8354 4.62604C15.3396 5.88646 15.0187 6.82604 14.9271 7.05521C15.5114 7.69687 15.8666 8.51042 15.8666 9.51875C15.8666 13.0365 13.7239 13.8156 11.6844 14.0448C12.0166 14.3312 12.3031 14.8812 12.3031 15.7406C12.3031 16.9667 12.2916 17.9521 12.2916 18.2615C12.2916 18.5021 12.4635 18.7885 12.9219 18.6969C16.5427 17.4823 19.1666 14.0448 19.1666 10C19.1666 4.93542 15.0646 0.833332 9.99998 0.833332Z" fill="black"/>
</svg>
