<svg width="23" height="22" viewBox="0 0 23 22" fill="none" xmlns="http://www.w3.org/2000/svg">
<ellipse cx="11.5" cy="10.4545" rx="11.5" ry="10.4545" fill="white"/>
<path fill-rule="evenodd" clip-rule="evenodd" d="M11.6742 2.09091C6.37942 2.09091 2.09088 6.37945 2.09088 11.6742C2.09088 15.9149 4.83411 19.4966 8.64349 20.7664C9.12265 20.8503 9.30234 20.5628 9.30234 20.3112C9.30234 20.0836 9.29036 19.3289 9.29036 18.5263C6.88255 18.9696 6.25963 17.9394 6.06796 17.4003C5.96015 17.1248 5.49296 16.2742 5.08567 16.0466C4.75026 15.867 4.27109 15.4237 5.07369 15.4117C5.82838 15.3998 6.36744 16.1065 6.54713 16.394C7.40963 17.8435 8.78724 17.4362 9.33828 17.1847C9.42213 16.5617 9.67369 16.1425 9.94921 15.9029C7.81692 15.6633 5.5888 14.8367 5.5888 11.1711C5.5888 10.1289 5.96015 9.26643 6.57109 8.5956C6.47526 8.35602 6.13984 7.37372 6.66692 6.05602C6.66692 6.05602 7.46953 5.80445 9.30234 7.03831C10.069 6.82268 10.8836 6.71487 11.6982 6.71487C12.5128 6.71487 13.3273 6.82268 14.094 7.03831C15.9268 5.79247 16.7294 6.05602 16.7294 6.05602C17.2565 7.37372 16.9211 8.35602 16.8253 8.5956C17.4362 9.26643 17.8075 10.117 17.8075 11.1711C17.8075 14.8487 15.5674 15.6633 13.4352 15.9029C13.7825 16.2024 14.082 16.7774 14.082 17.6758C14.082 18.9576 14.07 19.9878 14.07 20.3112C14.07 20.5628 14.2497 20.8623 14.7289 20.7664C18.5143 19.4966 21.2575 15.9029 21.2575 11.6742C21.2575 6.37945 16.969 2.09091 11.6742 2.09091Z" fill="white"/>
<path d="M8.03162 5.89288C8.46278 6.04867 8.99612 6.29697 9.51271 6.66713C10.1388 6.49564 10.8073 6.40342 11.5001 6.40342C12.1921 6.40342 12.86 6.49546 13.4855 6.66661C14.002 6.29664 14.5353 6.04847 14.9663 5.89276C15.452 5.71729 16.1443 5.43238 16.5553 5.91618C16.8343 6.24463 16.9036 6.79588 16.9533 7.21616C17.0089 7.68579 17.0219 8.29796 16.8756 8.90491C17.4352 9.67269 17.7728 10.5892 17.7728 11.5871C17.7728 13.0994 17.0019 14.4121 15.8609 15.3213C15.3357 15.7398 14.7252 16.0801 14.0556 16.3256C14.205 16.6887 14.288 17.0898 14.288 17.5114V19.733C14.288 20.142 13.9759 20.4735 13.591 20.4735H9.40914C9.02422 20.4735 8.71217 20.142 8.71217 19.733V18.9989C8.04635 19.0855 7.48835 19.0089 7.01335 18.7948C6.51725 18.5711 6.17147 18.2243 5.91158 17.8929C5.66506 17.5786 5.39631 16.8707 5.00691 16.7329C4.64174 16.6035 4.44439 16.1841 4.5661 15.7962C4.68783 15.4081 5.08254 15.1985 5.44771 15.3278C5.91174 15.4921 6.21388 15.8477 6.42133 16.1329C6.75522 16.592 7.02801 17.1926 7.55775 17.4313C7.77559 17.5295 8.09564 17.5947 8.59526 17.5215L8.71221 17.4967C8.71411 17.0805 8.79681 16.6845 8.94452 16.3256C8.27495 16.0801 7.66436 15.7398 7.13922 15.3213C5.99818 14.4121 5.22733 13.0994 5.22733 11.5871C5.22733 10.5904 5.56413 9.67482 6.12253 8.90759C5.97569 8.30017 5.9885 7.68734 6.04408 7.21724C6.0452 7.2078 6.04631 7.19832 6.04744 7.1888C6.09823 6.7582 6.15809 6.25074 6.44216 5.91626C6.85308 5.43243 7.54594 5.7174 8.03162 5.89288Z" fill="black"/>
</svg>
