<svg width="24" height="17" viewBox="0 0 24 17" fill="none" xmlns="http://www.w3.org/2000/svg">
<path fill-rule="evenodd" clip-rule="evenodd" d="M7.63636 7.12987H14.8473C14.9127 7.54578 14.9673 7.96169 14.9673 8.50831C14.9673 13.2616 12.0436 16.6364 7.63636 16.6364C3.41455 16.6364 0 12.9169 0 8.31818C0 3.71942 3.41455 0 7.63636 0C9.69818 0 11.4218 0.819935 12.7527 2.17461L10.68 4.34922C10.1127 3.75506 9.12 3.06584 7.63636 3.06584C5.02909 3.06584 2.90182 5.4187 2.90182 8.31818C2.90182 11.2177 5.02909 13.5705 7.63636 13.5705C10.6582 13.5705 11.7927 11.2058 11.9673 9.98182H7.63636V7.12987ZM24 7.12987V9.50649H21.8182V11.8831H19.6364V9.50649H17.4545V7.12987H19.6364V4.75325H21.8182V7.12987H24Z" fill="white"/>
</svg>
