<svg width="19" height="14" viewBox="0 0 19 14" fill="none" xmlns="http://www.w3.org/2000/svg">
<path d="M2.58323 13.6391C2.58323 13.6391 2.56595 13.9901 2.98137 13.9901C3.49831 13.9901 7.77061 13.9853 7.77061 13.9853L7.77781 10.7433C7.77781 10.7433 7.71014 10.2092 8.33723 10.2092H10.3251C11.0674 10.2092 11.022 10.7433 11.022 10.7433L11.0134 13.9752C11.0134 13.9752 15.0653 13.9752 15.7018 13.9752C16.2288 13.9752 16.2051 13.5386 16.2051 13.5386V7.56013L9.59718 2.70512L2.58323 7.56072C2.58323 7.56072 2.58323 13.6391 2.58323 13.6391Z" fill="#C4C4C4"/>
<path d="M0 7.10871C0 7.10871 0.594695 8.01512 1.89424 7.10871L9.65623 1.68393L16.933 7.07481C18.4363 7.97052 19 7.07481 19 7.07481L9.65623 0.08284L0 7.10871Z" fill="#C4C4C4"/>
<path d="M16.7558 1.67143H14.8846L14.8926 3.5467L16.7558 4.85339V1.67143Z" fill="#C4C4C4"/>
</svg>
