<svg width="25" height="25" viewBox="0 0 25 25" fill="none" xmlns="http://www.w3.org/2000/svg">
<path d="M21.4806 0.31615L1.16966 12.0291C-0.509896 13.0007 -0.348776 15.4859 1.44796 16.2231L7.02859 18.5325V22.6533C7.02859 24.9187 9.91899 25.8513 11.2568 24.0497L13.3953 21.1642L18.8587 23.4198C19.1468 23.537 19.4495 23.5956 19.7522 23.5956C20.1526 23.5956 20.548 23.4931 20.9045 23.2929C21.5294 22.9414 21.9591 22.3164 22.0714 21.6085L24.9715 2.70366C25.2694 0.745804 23.1699 -0.655455 21.4806 0.31615V0.31615ZM9.37215 22.6533V19.4992L11.1591 20.2365L9.37215 22.6533ZM19.7522 21.252L12.243 18.1517L19.0882 8.27452C19.6106 7.51774 18.6244 6.6389 17.9311 7.23944L7.60471 16.2378L2.34145 14.0602L22.6524 2.34236L19.7522 21.252Z" fill="#17C717"/>
</svg>
