<svg width="18" height="18" viewBox="0 0 18 18" fill="none" xmlns="http://www.w3.org/2000/svg">
<path d="M4.18992 5.7837H0.576394C0.41602 5.7837 0.286072 5.91399 0.286072 6.07466V17.709C0.286072 17.8697 0.41602 17.9999 0.576394 17.9999H4.18992C4.3503 17.9999 4.48025 17.8697 4.48025 17.709V6.07466C4.48025 5.91399 4.3503 5.7837 4.18992 5.7837Z" fill="white"/>
<path d="M2.38448 0C1.06966 0 0 1.07086 0 2.38712C0 3.70395 1.06966 4.77522 2.38448 4.77522C3.69825 4.77522 4.76704 3.7039 4.76704 2.38712C4.7671 1.07086 3.69825 0 2.38448 0Z" fill="white"/>
<path d="M13.3812 5.49454C11.9299 5.49454 10.857 6.11982 10.2063 6.8303V6.07467C10.2063 5.914 10.0763 5.7837 9.91595 5.7837H6.45536C6.29499 5.7837 6.16504 5.914 6.16504 6.07467V17.709C6.16504 17.8697 6.29499 17.9999 6.45536 17.9999H10.061C10.2214 17.9999 10.3513 17.8697 10.3513 17.709V11.9527C10.3513 10.013 10.877 9.25727 12.2262 9.25727C13.6956 9.25727 13.8124 10.4687 13.8124 12.0525V17.709C13.8124 17.8698 13.9423 18 14.1027 18H17.7097C17.87 18 18 17.8698 18 17.709V11.3274C18 8.4431 17.4512 5.49454 13.3812 5.49454Z" fill="white"/>
</svg>
