<svg width="164" height="35" viewBox="0 0 164 35" fill="none" xmlns="http://www.w3.org/2000/svg">
<g clip-path="url(#clip0_17_17)">
<path d="M17.5 35C7.85039 35 0 28.0384 0 19.4811C0 14.4835 2.74016 9.76238 7.32968 6.85154C8.57127 6.06448 10.297 6.31859 11.1844 7.41963C12.0723 8.52047 11.7857 10.0509 10.5443 10.838C7.40227 12.8306 5.52616 16.0617 5.52616 19.4811C5.52616 25.3364 10.8975 30.0994 17.5 30.0994C24.1025 30.0994 29.4738 25.3365 29.4738 19.4811C29.4738 16.0617 27.5977 12.8306 24.4557 10.838C23.2143 10.051 22.9277 8.52057 23.8156 7.41963C24.703 6.31869 26.4288 6.06448 27.6703 6.85154C32.2598 9.76228 35 14.4835 35 19.4811C35 28.0384 27.1496 35 17.5 35Z" fill="#0A7ED2"/>
<path d="M17.5 18.786C15.974 18.786 14.7369 17.6889 14.7369 16.3353V2.44998C14.7369 1.09704 15.974 0 17.5 0C19.026 0 20.2631 1.09704 20.2631 2.44998V16.3354C20.2631 17.6889 19.026 18.786 17.5 18.786Z" fill="#0A7ED2"/>
</g>
<path d="M40.232 17.208C40.232 15.88 40.216 14.704 40.184 13.68C40.152 12.64 40.104 11.6 40.04 10.56C40.312 10.592 40.608 10.624 40.928 10.656C41.248 10.672 41.608 10.68 42.008 10.68C42.408 10.68 42.768 10.672 43.088 10.656C43.408 10.624 43.704 10.592 43.976 10.56C43.912 11.6 43.864 12.64 43.832 13.68C43.8 14.704 43.784 15.88 43.784 17.208V20.472C43.784 21.8 43.8 22.984 43.832 24.024C43.864 25.048 43.912 26.056 43.976 27.048C43.704 27.016 43.408 27 43.088 27C42.768 27 42.408 27 42.008 27C41.608 27 41.248 27 40.928 27C40.608 27 40.312 27.016 40.04 27.048C40.104 26.056 40.152 25.048 40.184 24.024C40.216 22.984 40.232 21.8 40.232 20.472V17.208ZM50.0242 15.336C50.0242 14.232 50.0082 13.304 49.9762 12.552C49.9442 11.8 49.9202 11.136 49.9042 10.56C50.3522 10.64 50.7122 10.68 50.9842 10.68C51.2562 10.68 51.6162 10.64 52.0642 10.56C53.8082 12.496 55.5282 14.4 57.2242 16.272C58.9362 18.144 60.6882 20.048 62.4802 21.984V19.896V17.568C62.4802 16.784 62.4722 16.016 62.4562 15.264C62.4562 14.496 62.4482 13.792 62.4322 13.152C62.4322 12.512 62.4162 11.96 62.3842 11.496C62.3682 11.032 62.3442 10.72 62.3122 10.56C62.7602 10.64 63.1202 10.68 63.3922 10.68C63.6642 10.68 64.0242 10.64 64.4722 10.56C64.3922 12.016 64.3282 13.336 64.2802 14.52C64.2322 15.688 64.1922 16.792 64.1602 17.832C64.1282 18.872 64.1042 19.904 64.0882 20.928C64.0882 21.936 64.0882 23.016 64.0882 24.168V27.048C63.7682 27.016 63.4402 27 63.1042 27C62.7522 27 62.4402 27.016 62.1682 27.048C58.8722 23.208 55.3762 19.344 51.6802 15.456C51.6642 15.92 51.6482 16.384 51.6322 16.848C51.6322 17.312 51.6322 17.784 51.6322 18.264V21.048C51.6322 22.008 51.6322 22.824 51.6322 23.496C51.6482 24.168 51.6642 24.736 51.6802 25.2C51.6962 25.664 51.7122 26.048 51.7282 26.352C51.7442 26.64 51.7602 26.872 51.7762 27.048C51.5842 27.016 51.3922 27 51.2002 27C51.0082 27 50.8242 27 50.6482 27C50.2802 27 49.9122 27.016 49.5442 27.048C49.5762 26.92 49.6162 26.464 49.6642 25.68C49.7122 24.896 49.7602 23.944 49.8082 22.824C49.8722 21.688 49.9202 20.464 49.9522 19.152C50.0002 17.824 50.0242 16.552 50.0242 15.336ZM72.9999 14.472C72.9999 14.008 72.9919 13.584 72.9759 13.2C72.9759 12.816 72.9599 12.536 72.9279 12.36C72.6879 12.36 72.3919 12.368 72.0399 12.384C71.6879 12.4 71.3119 12.424 70.9119 12.456C70.5119 12.472 70.1039 12.504 69.6879 12.552C69.2719 12.584 68.8879 12.624 68.5359 12.672C68.5679 12.496 68.5919 12.32 68.6079 12.144C68.6399 11.968 68.6559 11.792 68.6559 11.616C68.6559 11.44 68.6399 11.264 68.6079 11.088C68.5919 10.912 68.5679 10.736 68.5359 10.56C69.0799 10.576 69.5679 10.592 69.9999 10.608C70.4479 10.624 70.8959 10.64 71.3439 10.656C71.8079 10.656 72.3039 10.664 72.8319 10.68C73.3759 10.68 74.0239 10.68 74.7759 10.68C75.5279 10.68 76.1679 10.68 76.6959 10.68C77.2399 10.664 77.7359 10.656 78.1839 10.656C78.6319 10.64 79.0639 10.624 79.4799 10.608C79.9119 10.592 80.3759 10.576 80.8719 10.56C80.8399 10.736 80.8079 10.912 80.7759 11.088C80.7599 11.264 80.7519 11.44 80.7519 11.616C80.7519 11.792 80.7599 11.968 80.7759 12.144C80.8079 12.32 80.8399 12.496 80.8719 12.672C80.5519 12.624 80.1919 12.584 79.7919 12.552C79.3919 12.504 78.9919 12.472 78.5919 12.456C78.2079 12.424 77.8399 12.4 77.4879 12.384C77.1359 12.368 76.8399 12.36 76.5999 12.36C76.5839 12.44 76.5679 12.552 76.5519 12.696C76.5519 12.84 76.5519 13.008 76.5519 13.2V14.472V20.472C76.5519 21.8 76.5679 22.984 76.5999 24.024C76.6319 25.048 76.6799 26.056 76.7439 27.048C76.4719 27.016 76.1759 27 75.8559 27C75.5359 27 75.1759 27 74.7759 27C74.3759 27 74.0159 27 73.6959 27C73.3759 27 73.0799 27.016 72.8079 27.048C72.8719 26.056 72.9199 25.048 72.9519 24.024C72.9839 22.984 72.9999 21.8 72.9999 20.472V14.472ZM84.9678 17.208C84.9678 15.88 84.9518 14.704 84.9198 13.68C84.8878 12.64 84.8398 11.6 84.7758 10.56C85.4958 10.576 86.2078 10.6 86.9118 10.632C87.6158 10.664 88.3278 10.68 89.0478 10.68C90.2318 10.68 91.2798 10.672 92.1918 10.656C93.1198 10.624 93.7438 10.592 94.0638 10.56C93.9998 10.816 93.9678 11.152 93.9678 11.568C93.9678 11.824 93.9758 12.024 93.9918 12.168C94.0078 12.312 94.0318 12.472 94.0638 12.648C93.5998 12.616 93.0878 12.584 92.5278 12.552C91.9838 12.52 91.4478 12.488 90.9198 12.456C90.4078 12.424 89.9438 12.4 89.5278 12.384C89.1118 12.368 88.8158 12.36 88.6398 12.36C88.5758 13.24 88.5358 14.112 88.5198 14.976C88.5198 15.84 88.5198 16.712 88.5198 17.592C89.5598 17.576 90.4958 17.552 91.3278 17.52C92.1758 17.488 93.0558 17.448 93.9678 17.4C93.9198 17.672 93.8878 17.88 93.8718 18.024C93.8558 18.168 93.8478 18.32 93.8478 18.48C93.8478 18.608 93.8558 18.744 93.8718 18.888C93.9038 19.016 93.9358 19.208 93.9678 19.464C92.1438 19.32 90.3278 19.248 88.5198 19.248C88.5198 19.76 88.5118 20.272 88.4958 20.784C88.4958 21.296 88.4958 21.808 88.4958 22.32C88.4958 23.36 88.5198 24.36 88.5678 25.32C89.4798 25.32 90.3918 25.296 91.3038 25.248C92.2158 25.2 93.1358 25.12 94.0638 25.008C94.0318 25.184 94.0078 25.344 93.9918 25.488C93.9758 25.632 93.9678 25.832 93.9678 26.088C93.9678 26.344 93.9758 26.544 93.9918 26.688C94.0078 26.832 94.0318 26.952 94.0638 27.048C93.6318 27.032 93.0958 27.016 92.4558 27C91.8318 27 90.9678 27 89.8638 27C88.8878 27 88.0958 27 87.4878 27C86.8958 27 86.4158 27 86.0478 27C85.6958 27 85.4238 27 85.2318 27C85.0558 27.016 84.9038 27.032 84.7758 27.048C84.8398 26.056 84.8878 25.048 84.9198 24.024C84.9518 22.984 84.9678 21.8 84.9678 20.472V17.208ZM112.568 14.136C112.056 13.416 111.416 12.84 110.648 12.408C109.88 11.96 108.944 11.736 107.84 11.736C107.104 11.736 106.368 11.896 105.632 12.216C104.912 12.52 104.264 12.984 103.688 13.608C103.128 14.232 102.672 15.016 102.32 15.96C101.968 16.888 101.792 17.984 101.792 19.248C101.792 20.208 101.92 21.096 102.176 21.912C102.448 22.728 102.832 23.44 103.328 24.048C103.824 24.64 104.432 25.104 105.152 25.44C105.872 25.776 106.696 25.944 107.624 25.944C107.832 25.944 108.064 25.936 108.32 25.92C108.592 25.888 108.848 25.856 109.088 25.824C109.344 25.792 109.576 25.752 109.784 25.704C109.992 25.64 110.144 25.576 110.24 25.512C110.272 25.32 110.288 25.08 110.288 24.792C110.304 24.504 110.312 24.184 110.312 23.832C110.312 22.536 110.288 21.584 110.24 20.976C110.192 20.352 110.16 19.928 110.144 19.704C110.304 19.736 110.512 19.768 110.768 19.8C111.04 19.816 111.424 19.824 111.92 19.824C112.496 19.824 112.92 19.816 113.192 19.8C113.48 19.768 113.704 19.736 113.864 19.704C113.832 19.832 113.8 20.04 113.768 20.328C113.752 20.616 113.736 20.952 113.72 21.336C113.704 21.704 113.688 22.104 113.672 22.536C113.672 22.952 113.672 23.352 113.672 23.736V24.528C113.672 24.928 113.672 25.304 113.672 25.656C113.688 25.992 113.712 26.232 113.744 26.376C112.688 26.68 111.616 26.92 110.528 27.096C109.456 27.272 108.392 27.36 107.336 27.36C105.96 27.36 104.688 27.184 103.52 26.832C102.368 26.464 101.368 25.936 100.52 25.248C99.6878 24.544 99.0318 23.704 98.5518 22.728C98.0878 21.736 97.8558 20.624 97.8558 19.392C97.8558 17.872 98.1038 16.544 98.5998 15.408C99.1118 14.256 99.8078 13.304 100.688 12.552C101.584 11.784 102.64 11.208 103.856 10.824C105.072 10.44 106.384 10.248 107.792 10.248C109.008 10.248 110.056 10.376 110.936 10.632C111.832 10.872 112.712 11.224 113.576 11.688C113.448 12.104 113.32 12.512 113.192 12.912C113.08 13.312 112.984 13.72 112.904 14.136H112.568ZM126.568 15.072C126.568 14.368 126.496 13.808 126.352 13.392C126.208 12.976 125.984 12.664 125.68 12.456C125.392 12.232 125.008 12.088 124.528 12.024C124.064 11.96 123.504 11.928 122.848 11.928C122.8 14.104 122.776 16.28 122.776 18.456C122.872 18.472 122.96 18.488 123.04 18.504C123.136 18.504 123.224 18.504 123.304 18.504C124.36 18.504 125.168 18.224 125.728 17.664C126.288 17.088 126.568 16.224 126.568 15.072ZM122.776 19.488V20.472C122.776 21.8 122.792 22.984 122.824 24.024C122.856 25.048 122.904 26.056 122.968 27.048C122.696 27.016 122.4 27 122.08 27C121.76 27 121.4 27 121 27C120.6 27 120.24 27 119.92 27C119.6 27 119.304 27.016 119.032 27.048C119.096 26.056 119.144 25.048 119.176 24.024C119.208 22.984 119.224 21.8 119.224 20.472V17.208C119.224 15.88 119.208 14.704 119.176 13.68C119.144 12.64 119.096 11.6 119.032 10.56C119.304 10.592 119.6 10.624 119.92 10.656C120.24 10.672 120.6 10.68 121 10.68C121.432 10.68 121.92 10.664 122.464 10.632C123.024 10.584 123.712 10.56 124.528 10.56C125.136 10.56 125.656 10.576 126.088 10.608C126.52 10.64 126.888 10.688 127.192 10.752C127.512 10.816 127.784 10.904 128.008 11.016C128.248 11.112 128.472 11.232 128.68 11.376C129.16 11.728 129.536 12.168 129.808 12.696C130.096 13.208 130.24 13.824 130.24 14.544C130.24 15.712 129.92 16.664 129.28 17.4C128.64 18.136 127.72 18.656 126.52 18.96C127.288 20.32 128.112 21.68 128.992 23.04C129.872 24.384 130.752 25.72 131.632 27.048C131.264 27.016 130.904 27 130.552 27C130.2 27 129.84 27 129.472 27C129.104 27 128.736 27 128.368 27C128.016 27 127.656 27.016 127.288 27.048L122.992 19.488H122.776ZM140.615 15.072C140.199 16.032 139.807 16.984 139.439 17.928C139.071 18.856 138.711 19.808 138.359 20.784H142.751C142.399 19.808 142.047 18.856 141.695 17.928C141.359 16.984 140.999 16.032 140.615 15.072ZM149.111 27.048C148.727 27.016 148.359 27 148.007 27C147.671 27 147.335 27 146.999 27C146.663 27 146.319 27 145.967 27C145.631 27 145.295 27.016 144.959 27.048C144.703 26.264 144.439 25.464 144.167 24.648C143.895 23.832 143.607 23.016 143.303 22.2C142.791 22.184 142.279 22.176 141.767 22.176C141.255 22.16 140.743 22.152 140.231 22.152C139.815 22.152 139.399 22.16 138.983 22.176C138.567 22.176 138.151 22.184 137.735 22.2C137.415 23.016 137.119 23.832 136.847 24.648C136.575 25.464 136.327 26.264 136.103 27.048C135.911 27.016 135.719 27 135.527 27C135.351 27 135.167 27 134.975 27C134.783 27 134.591 27 134.399 27C134.207 27 133.999 27.016 133.775 27.048C133.967 26.632 134.223 26.056 134.543 25.32C134.863 24.584 135.215 23.752 135.599 22.824C135.983 21.896 136.391 20.904 136.823 19.848C137.271 18.776 137.711 17.696 138.143 16.608C138.591 15.52 139.023 14.448 139.439 13.392C139.871 12.336 140.263 11.352 140.615 10.44C140.775 10.472 140.927 10.504 141.071 10.536C141.215 10.552 141.367 10.56 141.527 10.56C141.687 10.56 141.839 10.552 141.983 10.536C142.127 10.504 142.279 10.472 142.439 10.44C142.951 11.8 143.495 13.256 144.071 14.808C144.663 16.36 145.255 17.888 145.847 19.392C146.439 20.88 147.015 22.296 147.575 23.64C148.135 24.984 148.647 26.12 149.111 27.048ZM153.263 17.208C153.263 15.88 153.247 14.704 153.215 13.68C153.183 12.64 153.135 11.6 153.071 10.56C153.343 10.592 153.639 10.624 153.959 10.656C154.279 10.672 154.639 10.68 155.039 10.68C155.439 10.68 155.799 10.672 156.119 10.656C156.439 10.624 156.735 10.592 157.007 10.56C156.943 11.6 156.895 12.64 156.863 13.68C156.831 14.704 156.815 15.88 156.815 17.208V20.472C156.815 21.384 156.815 22.264 156.815 23.112C156.831 23.96 156.847 24.696 156.863 25.32C157.775 25.32 158.687 25.296 159.599 25.248C160.511 25.2 161.431 25.12 162.359 25.008C162.327 25.184 162.303 25.344 162.287 25.488C162.271 25.632 162.263 25.832 162.263 26.088C162.263 26.344 162.271 26.544 162.287 26.688C162.303 26.832 162.327 26.952 162.359 27.048C161.927 27.032 161.391 27.016 160.751 27C160.127 27 159.263 27 158.159 27C157.183 27 156.391 27 155.783 27C155.191 27 154.711 27 154.343 27C153.991 27 153.719 27 153.527 27C153.351 27.016 153.199 27.032 153.071 27.048C153.135 26.056 153.183 25.048 153.215 24.024C153.247 22.984 153.263 21.8 153.263 20.472V17.208Z" fill="black"/>
<defs>
<clipPath id="clip0_17_17">
<rect width="35" height="35" fill="white"/>
</clipPath>
</defs>
</svg>
