<svg width="25" height="25" viewBox="0 0 25 25" fill="none" xmlns="http://www.w3.org/2000/svg">
<path d="M18.0095 1.49134C16.1395 1.49134 14.3777 2.22285 13.0538 3.54677L12.5077 4.09283L11.9514 3.53647C10.6274 2.21255 8.86565 1.48104 6.99567 1.48104C5.13085 1.48104 3.3742 2.2074 2.05028 3.53132C0.726355 4.85524 0 6.61189 0 8.48187C0 10.3518 0.731506 12.1085 2.05543 13.4324L11.8689 23.2459L11.8896 23.2665C12.0596 23.4365 12.2862 23.519 12.5077 23.519C12.7344 23.519 12.9611 23.4314 13.1311 23.2614L22.9446 13.4479C24.2685 12.1239 25 10.3673 25 8.49732C25 6.62734 24.2736 4.86555 22.9497 3.54677C21.631 2.2177 19.8743 1.49134 18.0095 1.49134ZM21.6979 12.1961L12.5129 21.3863L3.30723 12.1806C2.31815 11.1915 1.7721 9.87791 1.76695 8.47671C1.76695 7.08067 2.30785 5.76705 3.29693 4.77797C4.28601 3.79404 5.59963 3.24799 6.99052 3.24799C8.39172 3.24799 9.70534 3.79404 10.6996 4.78827L11.8793 5.96796C12.2089 6.29765 12.7962 6.29765 13.1311 5.96796L14.3056 4.79343C15.2947 3.80435 16.6134 3.25829 18.0095 3.25829C19.4055 3.25829 20.7191 3.80435 21.7082 4.79343C22.6973 5.7825 23.2434 7.09612 23.2382 8.49732C23.2382 9.89336 22.6922 11.207 21.6979 12.1961Z" fill="#17C717"/>
</svg>
