<svg width="25" height="25" viewBox="0 0 25 25" fill="none" xmlns="http://www.w3.org/2000/svg">
<path d="M12.5 10.5268C19.4036 10.5268 25 8.47944 25 5.95386C25 3.42829 19.4036 1.38091 12.5 1.38091C5.59644 1.38091 0 3.42829 0 5.95386C0 8.47944 5.59644 10.5268 12.5 10.5268Z" fill="#17C717"/>
<path d="M0.0838123 10.012C0.0295338 10.1804 0 10.3528 0 10.5276C0 13.0532 5.59626 15.1006 12.5 15.1006C19.4029 15.1006 25 13.054 25 10.5276C25 10.3528 24.9705 10.1804 24.9162 10.012C22.0634 11.6196 17.5702 12.6612 12.5 12.6612C7.42976 12.6612 2.93742 11.6196 0.0838123 10.012Z" fill="#17C717"/>
<path d="M0.0838123 14.2712C0.0295338 14.4413 0 14.6129 0 14.7869C0 17.3124 5.59626 19.3598 12.5 19.3598C19.4029 19.3598 25 17.3132 25 14.7869C25 14.6121 24.9705 14.4405 24.9162 14.2712C22.0634 15.8788 17.5702 16.9205 12.5 16.9205C7.42976 16.9205 2.93742 15.8788 0.0838123 14.2712Z" fill="#17C717"/>
<path d="M0.0838123 18.5305C0.0295338 18.7005 0 18.8721 0 19.0461C0 21.5717 5.59626 23.6191 12.5 23.6191C19.4029 23.6191 25 21.5725 25 19.0461C25 18.8713 24.9705 18.6997 24.9162 18.5305C22.0634 20.1389 17.5702 21.1798 12.5 21.1798C7.42976 21.1798 2.93742 20.1381 0.0838123 18.5305Z" fill="#17C717"/>
</svg>
