<svg width="28" height="28" viewBox="0 0 28 28" fill="none" xmlns="http://www.w3.org/2000/svg">
<path d="M25.526 16.036L25 15.732C24.374 15.371 24 14.723 24 14C24 13.277 24.374 12.629 25 12.268L25.526 11.964C26.962 11.134 27.453 9.302 26.624 7.866L25.624 6.134C24.797 4.701 22.958 4.209 21.526 5.036L21 5.339C20.374 5.701 19.625 5.701 19 5.339C18.374 4.977 18 4.33 18 3.607V3C18 1.346 16.654 0 15 0H13C11.346 0 9.99999 1.346 9.99999 3V3.608C9.99999 4.331 9.62599 4.978 8.99999 5.34C8.37399 5.701 7.62599 5.702 6.99999 5.34L6.47399 5.036C5.04199 4.209 3.20299 4.701 2.37499 6.134L1.37499 7.866C0.545989 9.302 1.03699 11.135 2.47299 11.964L2.99999 12.268C3.62599 12.629 3.99999 13.277 3.99999 14C3.99999 14.723 3.62599 15.371 2.99999 15.732L2.47399 16.036C1.03799 16.865 0.546989 18.698 1.37599 20.134L2.37599 21.866C3.20399 23.299 5.04299 23.791 6.47399 22.964L6.99999 22.661C7.62599 22.298 8.37399 22.3 8.99999 22.661C9.62599 23.023 9.99999 23.67 9.99999 24.393V25C9.99999 26.654 11.346 28 13 28H15C16.654 28 18 26.654 18 25V24.392C18 23.669 18.374 23.022 19 22.66C19.625 22.299 20.374 22.298 21 22.66L21.526 22.964C22.958 23.79 24.797 23.298 25.624 21.866L26.624 20.134C27.453 18.698 26.962 16.865 25.526 16.036ZM14 19C11.243 19 8.99999 16.757 8.99999 14C8.99999 11.243 11.243 9 14 9C16.757 9 19 11.243 19 14C19 16.757 16.757 19 14 19Z" fill="#12B712"/>
</svg>
