<svg width="25" height="25" viewBox="0 0 25 25" fill="none" xmlns="http://www.w3.org/2000/svg">
<path d="M22.9157 1.38889H2.08425C0.933323 1.38889 0.000915527 2.3213 0.000915527 3.47222V17.3602C0.000915527 18.5111 0.933323 19.4435 2.08425 19.4435H10.4167L9.72221 21.5269H6.59629C6.02129 21.5269 5.55462 21.9935 5.55462 22.5685C5.55462 23.1435 6.02129 23.6102 6.59629 23.6102H18.4018C18.9768 23.6102 19.4435 23.1435 19.4435 22.5685C19.4435 21.9935 18.9768 21.5269 18.4018 21.5269H15.2768L14.5824 19.4444H22.9148C24.0648 19.4444 24.9981 18.512 24.9981 17.362V3.47222C24.9981 2.3213 24.0657 1.38889 22.9148 1.38889L22.9157 1.38889ZM22.2204 16.6657H2.77684V4.16667H22.2204V16.6657Z" fill="#17C717"/>
</svg>
