<svg width="18" height="18" viewBox="0 0 18 18" fill="none" xmlns="http://www.w3.org/2000/svg">
<path d="M17.9959 4.61992C17.9008 6.86892 17.0728 10.2644 13.6687 13.6686C10.2644 17.0728 6.86897 17.9008 4.61998 17.9959C4.54204 17.9992 4.46436 18.0009 4.38668 18.0009C4.3866 18.0009 4.38651 18.0009 4.38642 18.0009C2.90806 18.0009 1.51672 17.4236 0.468523 16.3755C-0.155116 15.7518 -0.155116 14.7371 0.468523 14.1135L3.08333 11.4987C3.38541 11.1966 3.78704 11.0302 4.21435 11.0302C4.64158 11.0302 5.04321 11.1966 5.34529 11.4987L6.38505 12.5385C6.45295 12.5433 6.53854 12.5473 6.63914 12.5473C7.45315 12.5473 9.061 12.305 10.683 10.683C12.555 8.81102 12.5844 6.96099 12.5401 6.38677L11.4987 5.34532C10.875 4.72168 10.875 3.70699 11.4986 3.08344L14.1135 0.468551C14.4155 0.166375 14.8171 0 15.2444 0C15.6717 0 16.0733 0.166375 16.3754 0.468462C17.4704 1.56359 18.0611 3.07678 17.9959 4.61992Z" fill="#C4C4C4"/>
</svg>
