<svg width="35" height="35" viewBox="0 0 35 35" fill="none" xmlns="http://www.w3.org/2000/svg">
<g clip-path="url(#clip0_1_2)">
<path d="M17.5 35C7.85039 35 0 28.0384 0 19.4811C0 14.4835 2.74016 9.76238 7.32968 6.85154C8.57127 6.06448 10.297 6.31859 11.1844 7.41963C12.0723 8.52047 11.7857 10.0509 10.5443 10.838C7.40227 12.8306 5.52616 16.0617 5.52616 19.4811C5.52616 25.3364 10.8975 30.0994 17.5 30.0994C24.1025 30.0994 29.4738 25.3365 29.4738 19.4811C29.4738 16.0617 27.5977 12.8306 24.4557 10.838C23.2143 10.051 22.9277 8.52057 23.8156 7.41963C24.703 6.31869 26.4288 6.06448 27.6703 6.85154C32.2598 9.76228 35 14.4835 35 19.4811C35 28.0384 27.1496 35 17.5 35Z" fill="#0A7ED2"/>
<path d="M17.5 18.786C15.974 18.786 14.7369 17.6889 14.7369 16.3353V2.44998C14.7369 1.09704 15.974 0 17.5 0C19.026 0 20.2631 1.09704 20.2631 2.44998V16.3354C20.2631 17.6889 19.026 18.786 17.5 18.786Z" fill="#0A7ED2"/>
</g>
<defs>
<clipPath id="clip0_1_2">
<rect width="35" height="35" fill="white"/>
</clipPath>
</defs>
</svg>
