<svg width="32" height="32" viewBox="0 0 32 32" fill="none" xmlns="http://www.w3.org/2000/svg">
<path d="M29.34 18.5177L31.9663 6.96216C32.1559 6.12783 31.5217 5.33333 30.6661 5.33333H8.84489L8.33567 2.84388C8.20878 2.22338 7.66278 1.77777 7.02939 1.77777H1.33333C0.596944 1.77777 0 2.37472 0 3.1111V3.99999C0 4.73638 0.596944 5.33333 1.33333 5.33333H5.21572L9.11839 24.413C8.18472 24.95 7.55556 25.9568 7.55556 27.1111C7.55556 28.8293 8.94844 30.2222 10.6667 30.2222C12.3849 30.2222 13.7778 28.8293 13.7778 27.1111C13.7778 26.2403 13.4196 25.4536 12.8431 24.8889H24.4902C23.9137 25.4536 23.5556 26.2403 23.5556 27.1111C23.5556 28.8293 24.9484 30.2222 26.6667 30.2222C28.3849 30.2222 29.7778 28.8293 29.7778 27.1111C29.7778 25.8793 29.0618 24.8149 28.0234 24.3108L28.3299 22.9622C28.5195 22.1278 27.8853 21.3333 27.0297 21.3333H12.1176L11.754 19.5555H28.0398C28.6624 19.5555 29.2021 19.1248 29.34 18.5177Z" fill="#17C717"/>
</svg>
