<svg width="22" height="16" viewBox="0 0 22 16" fill="none" xmlns="http://www.w3.org/2000/svg">
<path d="M1 8.8076V7.3925C1 4.49715 1 3.04949 1.90549 2.11802C2.81099 1.18655 4.23656 1.14623 7.08769 1.06559C8.43873 1.02738 9.8188 1 11 1C12.1812 1 13.5613 1.02738 14.9123 1.06559C17.7634 1.14623 19.189 1.18655 20.0945 2.11802C21 3.04949 21 4.49715 21 7.3925V8.8076C21 11.7029 21 13.1506 20.0945 14.082C19.189 15.0135 17.7635 15.0538 14.9124 15.1345C13.5613 15.1727 12.1812 15.2001 11 15.2001C9.8188 15.2001 8.43867 15.1727 7.0876 15.1345C4.23651 15.0538 2.81097 15.0135 1.90548 14.082C1 13.1506 1 11.7029 1 8.8076Z" fill="white" stroke="white" stroke-width="1.5"/>
<path d="M15 8L9 11V5L15 8Z" fill="black" stroke="black" stroke-width="1.5" stroke-linecap="round" stroke-linejoin="round"/>
</svg>
